# MagicaVoxel @ Ephtracy

# group
o 

# material
mtllib enemy_model.mtl
usemtl palette

# normals
vn -1 0 0
vn 1 0 0
vn 0 0 1
vn 0 0 -1
vn 0 -1 0
vn 0 1 0

# texcoords
vt 0.150391 0.5
vt 0.185547 0.5
vt 0.404297 0.5
vt 0.466797 0.5
vt 0.873047 0.5
vt 0.986328 0.5

# verts
v -2 0 2
v -2 0 -2
v -2 0.5 1.7
v -2 0.5 -1.7
v -2 0.9 1.7
v -2 0.9 1.6
v -2 0.9 -1.7
v -2 3.1 1.7
v -2 3.1 1.6
v -2 3.1 -1.7
v -2 3.5 1.7
v -2 3.5 -1.7
v -2 4 2
v -2 4 -2
v -1.3 1.3 1.1
v -1.3 1.3 -1.1
v -1.3 2.7 1.1
v -1.3 2.7 -1.1
v -0.7 0.5 0.5
v -0.7 0.5 -0.5
v -0.7 0.7 0.5
v -0.7 0.7 -0.5
v -0.4 0.7 0.2
v -0.4 0.7 -0.2
v -0.4 1.3 0.2
v -0.4 1.3 -0.2
v 1.6 0.9 2
v 1.6 0.9 1.9
v 1.6 0.9 -1.9
v 1.6 0.9 -2
v 1.6 3.1 2
v 1.6 3.1 1.9
v 1.6 3.1 -1.9
v 1.6 3.1 -2
v 1.7 0.5 1.9
v 1.7 0.5 1.7
v 1.7 0.5 -1.7
v 1.7 0.5 -1.9
v 1.7 0.9 1.9
v 1.7 0.9 -1.9
v 1.7 3.1 1.9
v 1.7 3.1 -1.9
v 1.7 3.5 1.9
v 1.7 3.5 1.7
v 1.7 3.5 -1.7
v 1.7 3.5 -1.9
v 1.9 0.5 1.7
v 1.9 0.5 -1.7
v 1.9 0.9 1.7
v 1.9 0.9 1.6
v 1.9 0.9 -1.6
v 1.9 0.9 -1.7
v 1.9 3 1.7
v 1.9 3 1.6
v 1.9 3 -1.6
v 1.9 3 -1.7
v 1.9 3.5 1.7
v 1.9 3.5 -1.7
v -1.9 0.5 1.7
v -1.9 0.5 -1.7
v -1.9 0.9 1.7
v -1.9 0.9 1.6
v -1.9 0.9 -1.7
v -1.9 3.1 1.7
v -1.9 3.1 1.6
v -1.9 3.1 -1.7
v -1.9 3.5 1.7
v -1.9 3.5 -1.7
v -1.7 0.5 1.9
v -1.7 0.5 1.7
v -1.7 0.5 -1.7
v -1.7 0.5 -1.9
v -1.7 0.9 1.9
v -1.7 0.9 -1.9
v -1.7 3.1 1.9
v -1.7 3.1 -1.9
v -1.7 3.5 1.9
v -1.7 3.5 1.7
v -1.7 3.5 -1.7
v -1.7 3.5 -1.9
v -1.6 0.9 2
v -1.6 0.9 1.9
v -1.6 0.9 -1.9
v -1.6 0.9 -2
v -1.6 3.1 2
v -1.6 3.1 1.9
v -1.6 3.1 -1.9
v -1.6 3.1 -2
v 2.38419e-07 0.7 0.2
v 2.38419e-07 0.7 -0.2
v 2.38419e-07 1.3 0.2
v 2.38419e-07 1.3 -0.2
v 0.3 0.5 0.5
v 0.3 0.5 -0.5
v 0.3 0.7 0.5
v 0.3 0.7 -0.5
v 0.9 1.3 1.1
v 0.9 1.3 -1.1
v 0.9 2.7 1.1
v 0.9 2.7 -1.1
v 2 0 2
v 2 0 -2
v 2 0.5 1.7
v 2 0.5 -1.7
v 2 0.9 1.7
v 2 0.9 1.6
v 2 0.9 -1.6
v 2 0.9 -1.7
v 2 3 1.7
v 2 3 1.6
v 2 3 -1.6
v 2 3 -1.7
v 2 3.5 1.7
v 2 3.5 -1.7
v 2 4 2
v 2 4 -2
v -2 0 2
v -2 4 2
v -1.7 0.5 2
v -1.7 0.9 2
v -1.7 3.1 2
v -1.7 3.5 2
v -1.6 0.9 2
v -1.6 3.1 2
v 1.6 0.9 2
v 1.6 3.1 2
v 1.7 0.5 2
v 1.7 0.9 2
v 1.7 3.1 2
v 1.7 3.5 2
v 2 0 2
v 2 4 2
v -1.3 1.3 1.1
v -1.3 2.7 1.1
v 0.9 1.3 1.1
v 0.9 2.7 1.1
v -0.7 0.5 0.5
v -0.7 0.7 0.5
v 0.3 0.5 0.5
v 0.3 0.7 0.5
v -0.4 0.7 0.2
v -0.4 1.3 0.2
v 2.38419e-07 0.7 0.2
v 2.38419e-07 1.3 0.2
v 1.9 0.9 -1.6
v 1.9 3 -1.6
v 2 0.9 -1.6
v 2 3 -1.6
v -2 0.9 -1.7
v -2 3.1 -1.7
v -1.9 0.5 -1.7
v -1.9 0.9 -1.7
v -1.9 3.1 -1.7
v -1.9 3.5 -1.7
v -1.7 0.5 -1.7
v -1.7 3.5 -1.7
v 1.7 0.5 -1.7
v 1.7 3.5 -1.7
v 1.9 0.5 -1.7
v 1.9 0.9 -1.7
v 1.9 3 -1.7
v 1.9 3.5 -1.7
v -1.7 0.5 -1.9
v -1.7 0.9 -1.9
v -1.7 3.1 -1.9
v -1.7 3.5 -1.9
v -1.6 0.9 -1.9
v -1.6 3.1 -1.9
v 1.6 0.9 -1.9
v 1.6 3.1 -1.9
v 1.7 0.5 -1.9
v 1.7 0.9 -1.9
v 1.7 3.1 -1.9
v 1.7 3.5 -1.9
v -1.7 0.5 1.9
v -1.7 0.9 1.9
v -1.7 3.1 1.9
v -1.7 3.5 1.9
v -1.6 0.9 1.9
v -1.6 3.1 1.9
v 1.6 0.9 1.9
v 1.6 3.1 1.9
v 1.7 0.5 1.9
v 1.7 0.9 1.9
v 1.7 3.1 1.9
v 1.7 3.5 1.9
v -1.9 0.5 1.7
v -1.9 0.9 1.7
v -1.9 3.1 1.7
v -1.9 3.5 1.7
v -1.7 0.5 1.7
v -1.7 3.5 1.7
v 1.7 0.5 1.7
v 1.7 3.5 1.7
v 1.9 0.5 1.7
v 1.9 0.9 1.7
v 1.9 3 1.7
v 1.9 3.5 1.7
v -2 0.9 1.6
v -2 3.1 1.6
v -1.9 0.9 1.6
v -1.9 3.1 1.6
v 1.9 0.9 1.6
v 1.9 3 1.6
v 2 0.9 1.6
v 2 3 1.6
v -0.4 0.7 -0.2
v -0.4 1.3 -0.2
v 2.38419e-07 0.7 -0.2
v 2.38419e-07 1.3 -0.2
v -0.7 0.5 -0.5
v -0.7 0.7 -0.5
v 0.3 0.5 -0.5
v 0.3 0.7 -0.5
v -1.3 1.3 -1.1
v -1.3 2.7 -1.1
v 0.9 1.3 -1.1
v 0.9 2.7 -1.1
v -2 0 -2
v -2 4 -2
v -1.7 0.5 -2
v -1.7 0.9 -2
v -1.7 3.1 -2
v -1.7 3.5 -2
v -1.6 0.9 -2
v -1.6 3.1 -2
v 1.6 0.9 -2
v 1.6 3.1 -2
v 1.7 0.5 -2
v 1.7 0.9 -2
v 1.7 3.1 -2
v 1.7 3.5 -2
v 2 0 -2
v 2 4 -2
v -2 0 2
v 2 0 2
v -2 0 -2
v 2 0 -2
v -1.3 1.3 1.1
v 0.9 1.3 1.1
v -0.4 1.3 0.2
v 2.38419e-07 1.3 0.2
v -0.4 1.3 -0.2
v 2.38419e-07 1.3 -0.2
v -1.3 1.3 -1.1
v 0.9 1.3 -1.1
v 1.9 3 1.6
v 2 3 1.6
v 1.9 3 -1.6
v 2 3 -1.6
v -1.6 3.1 2
v 1.6 3.1 2
v -1.6 3.1 1.9
v 1.6 3.1 1.9
v -2 3.1 1.6
v -1.9 3.1 1.6
v -2 3.1 -1.7
v -1.9 3.1 -1.7
v -1.6 3.1 -1.9
v 1.6 3.1 -1.9
v -1.6 3.1 -2
v 1.6 3.1 -2
v -1.7 3.5 1.9
v 1.7 3.5 1.9
v -1.9 3.5 1.7
v -1.7 3.5 1.7
v 1.7 3.5 1.7
v 1.9 3.5 1.7
v -1.9 3.5 -1.7
v -1.7 3.5 -1.7
v 1.7 3.5 -1.7
v 1.9 3.5 -1.7
v -1.7 3.5 -1.9
v 1.7 3.5 -1.9
v -1.7 0.5 1.9
v 1.7 0.5 1.9
v -1.9 0.5 1.7
v -1.7 0.5 1.7
v 1.7 0.5 1.7
v 1.9 0.5 1.7
v -0.7 0.5 0.5
v 0.3 0.5 0.5
v -0.7 0.5 -0.5
v 0.3 0.5 -0.5
v -1.9 0.5 -1.7
v -1.7 0.5 -1.7
v 1.7 0.5 -1.7
v 1.9 0.5 -1.7
v -1.7 0.5 -1.9
v 1.7 0.5 -1.9
v -0.7 0.7 0.5
v 0.3 0.7 0.5
v -0.4 0.7 0.2
v 2.38419e-07 0.7 0.2
v -0.4 0.7 -0.2
v 2.38419e-07 0.7 -0.2
v -0.7 0.7 -0.5
v 0.3 0.7 -0.5
v -1.6 0.9 2
v 1.6 0.9 2
v -1.6 0.9 1.9
v 1.6 0.9 1.9
v -2 0.9 1.6
v -1.9 0.9 1.6
v 1.9 0.9 1.6
v 2 0.9 1.6
v 1.9 0.9 -1.6
v 2 0.9 -1.6
v -2 0.9 -1.7
v -1.9 0.9 -1.7
v -1.6 0.9 -1.9
v 1.6 0.9 -1.9
v -1.6 0.9 -2
v 1.6 0.9 -2
v -1.3 2.7 1.1
v 0.9 2.7 1.1
v -1.3 2.7 -1.1
v 0.9 2.7 -1.1
v -2 4 2
v 2 4 2
v -2 4 -2
v 2 4 -2

# faces
f 3/5/1 2/5/1 1/5/1
f 4/5/1 2/5/1 3/5/1
f 5/5/1 3/5/1 1/5/1
f 5/6/1 4/6/1 3/6/1
f 6/6/1 4/6/1 5/6/1
f 7/5/1 2/5/1 4/5/1
f 7/6/1 4/6/1 6/6/1
f 8/3/1 6/3/1 5/3/1
f 8/5/1 5/5/1 1/5/1
f 9/3/1 6/3/1 8/3/1
f 10/5/1 2/5/1 7/5/1
f 11/6/1 9/6/1 8/6/1
f 11/6/1 10/6/1 9/6/1
f 11/5/1 8/5/1 1/5/1
f 12/5/1 2/5/1 10/5/1
f 12/6/1 10/6/1 11/6/1
f 13/5/1 11/5/1 1/5/1
f 13/5/1 12/5/1 11/5/1
f 14/5/1 2/5/1 12/5/1
f 14/5/1 12/5/1 13/5/1
f 17/4/1 16/4/1 15/4/1
f 18/4/1 16/4/1 17/4/1
f 21/1/1 20/1/1 19/1/1
f 22/1/1 20/1/1 21/1/1
f 25/2/1 24/2/1 23/2/1
f 26/2/1 24/2/1 25/2/1
f 31/3/1 28/3/1 27/3/1
f 32/3/1 28/3/1 31/3/1
f 33/3/1 30/3/1 29/3/1
f 34/3/1 30/3/1 33/3/1
f 39/5/1 36/5/1 35/5/1
f 40/5/1 38/5/1 37/5/1
f 41/5/1 36/5/1 39/5/1
f 42/5/1 40/5/1 37/5/1
f 43/5/1 36/5/1 41/5/1
f 44/5/1 36/5/1 43/5/1
f 45/5/1 42/5/1 37/5/1
f 46/5/1 42/5/1 45/5/1
f 49/6/1 48/6/1 47/6/1
f 50/6/1 48/6/1 49/6/1
f 51/6/1 48/6/1 50/6/1
f 52/6/1 48/6/1 51/6/1
f 53/3/1 50/3/1 49/3/1
f 54/3/1 50/3/1 53/3/1
f 55/3/1 52/3/1 51/3/1
f 56/3/1 52/3/1 55/3/1
f 57/6/1 54/6/1 53/6/1
f 57/6/1 55/6/1 54/6/1
f 57/6/1 56/6/1 55/6/1
f 58/6/1 56/6/1 57/6/1
f 59/6/2 60/6/2 61/6/2
f 61/6/2 60/6/2 62/6/2
f 62/6/2 60/6/2 63/6/2
f 61/3/2 62/3/2 64/3/2
f 64/3/2 62/3/2 65/3/2
f 64/6/2 65/6/2 67/6/2
f 65/6/2 66/6/2 67/6/2
f 67/6/2 66/6/2 68/6/2
f 69/5/2 70/5/2 73/5/2
f 71/5/2 72/5/2 74/5/2
f 73/5/2 70/5/2 75/5/2
f 71/5/2 74/5/2 76/5/2
f 75/5/2 70/5/2 77/5/2
f 77/5/2 70/5/2 78/5/2
f 71/5/2 76/5/2 79/5/2
f 79/5/2 76/5/2 80/5/2
f 81/3/2 82/3/2 85/3/2
f 85/3/2 82/3/2 86/3/2
f 83/3/2 84/3/2 87/3/2
f 87/3/2 84/3/2 88/3/2
f 89/2/2 90/2/2 91/2/2
f 91/2/2 90/2/2 92/2/2
f 93/1/2 94/1/2 95/1/2
f 95/1/2 94/1/2 96/1/2
f 97/4/2 98/4/2 99/4/2
f 99/4/2 98/4/2 100/4/2
f 101/5/2 102/5/2 103/5/2
f 103/5/2 102/5/2 104/5/2
f 101/5/2 103/5/2 105/5/2
f 103/6/2 104/6/2 105/6/2
f 105/6/2 104/6/2 106/6/2
f 106/6/2 104/6/2 107/6/2
f 104/5/2 102/5/2 108/5/2
f 107/6/2 104/6/2 108/6/2
f 101/5/2 105/5/2 109/5/2
f 105/3/2 106/3/2 109/3/2
f 109/3/2 106/3/2 110/3/2
f 107/3/2 108/3/2 111/3/2
f 108/5/2 102/5/2 112/5/2
f 111/3/2 108/3/2 112/3/2
f 110/6/2 111/6/2 113/6/2
f 109/6/2 110/6/2 113/6/2
f 111/6/2 112/6/2 113/6/2
f 101/5/2 109/5/2 113/5/2
f 112/5/2 102/5/2 114/5/2
f 113/6/2 112/6/2 114/6/2
f 101/5/2 113/5/2 115/5/2
f 113/5/2 114/5/2 115/5/2
f 114/5/2 102/5/2 116/5/2
f 115/5/2 114/5/2 116/5/2
f 119/5/3 118/5/3 117/5/3
f 120/5/3 118/5/3 119/5/3
f 121/5/3 118/5/3 120/5/3
f 122/5/3 118/5/3 121/5/3
f 123/6/3 120/6/3 119/6/3
f 123/3/3 121/3/3 120/3/3
f 124/6/3 122/6/3 121/6/3
f 124/3/3 121/3/3 123/3/3
f 125/6/3 123/6/3 119/6/3
f 126/6/3 122/6/3 124/6/3
f 127/5/3 119/5/3 117/5/3
f 127/6/3 125/6/3 119/6/3
f 128/3/3 126/3/3 125/3/3
f 128/6/3 125/6/3 127/6/3
f 129/6/3 122/6/3 126/6/3
f 129/3/3 126/3/3 128/3/3
f 130/5/3 118/5/3 122/5/3
f 130/6/3 122/6/3 129/6/3
f 131/5/3 127/5/3 117/5/3
f 131/5/3 129/5/3 128/5/3
f 131/5/3 130/5/3 129/5/3
f 131/5/3 128/5/3 127/5/3
f 132/5/3 118/5/3 130/5/3
f 132/5/3 130/5/3 131/5/3
f 135/4/3 134/4/3 133/4/3
f 136/4/3 134/4/3 135/4/3
f 139/1/3 138/1/3 137/1/3
f 140/1/3 138/1/3 139/1/3
f 143/2/3 142/2/3 141/2/3
f 144/2/3 142/2/3 143/2/3
f 147/3/3 146/3/3 145/3/3
f 148/3/3 146/3/3 147/3/3
f 152/5/3 150/5/3 149/5/3
f 153/5/3 150/5/3 152/5/3
f 155/5/3 152/5/3 151/5/3
f 155/5/3 154/5/3 153/5/3
f 155/5/3 153/5/3 152/5/3
f 156/5/3 154/5/3 155/5/3
f 159/5/3 158/5/3 157/5/3
f 160/5/3 158/5/3 159/5/3
f 161/5/3 158/5/3 160/5/3
f 162/5/3 158/5/3 161/5/3
f 167/6/3 164/6/3 163/6/3
f 167/3/3 165/3/3 164/3/3
f 168/6/3 166/6/3 165/6/3
f 168/3/3 165/3/3 167/3/3
f 169/6/3 167/6/3 163/6/3
f 170/6/3 166/6/3 168/6/3
f 171/6/3 169/6/3 163/6/3
f 172/3/3 170/3/3 169/3/3
f 172/6/3 169/6/3 171/6/3
f 173/6/3 166/6/3 170/6/3
f 173/3/3 170/3/3 172/3/3
f 174/6/3 166/6/3 173/6/3
f 175/6/4 176/6/4 179/6/4
f 176/3/4 177/3/4 179/3/4
f 177/6/4 178/6/4 180/6/4
f 179/3/4 177/3/4 180/3/4
f 175/6/4 179/6/4 181/6/4
f 180/6/4 178/6/4 182/6/4
f 175/6/4 181/6/4 183/6/4
f 181/3/4 182/3/4 184/3/4
f 183/6/4 181/6/4 184/6/4
f 182/6/4 178/6/4 185/6/4
f 184/3/4 182/3/4 185/3/4
f 185/6/4 178/6/4 186/6/4
f 187/5/4 188/5/4 191/5/4
f 189/5/4 190/5/4 191/5/4
f 188/5/4 189/5/4 191/5/4
f 191/5/4 190/5/4 192/5/4
f 193/5/4 194/5/4 195/5/4
f 195/5/4 194/5/4 196/5/4
f 196/5/4 194/5/4 197/5/4
f 197/5/4 194/5/4 198/5/4
f 199/3/4 200/3/4 201/3/4
f 201/3/4 200/3/4 202/3/4
f 203/3/4 204/3/4 205/3/4
f 205/3/4 204/3/4 206/3/4
f 207/2/4 208/2/4 209/2/4
f 209/2/4 208/2/4 210/2/4
f 211/1/4 212/1/4 213/1/4
f 213/1/4 212/1/4 214/1/4
f 215/4/4 216/4/4 217/4/4
f 217/4/4 216/4/4 218/4/4
f 219/5/4 220/5/4 221/5/4
f 221/5/4 220/5/4 222/5/4
f 222/5/4 220/5/4 223/5/4
f 223/5/4 220/5/4 224/5/4
f 221/6/4 222/6/4 225/6/4
f 222/3/4 223/3/4 225/3/4
f 223/6/4 224/6/4 226/6/4
f 225/3/4 223/3/4 226/3/4
f 221/6/4 225/6/4 227/6/4
f 226/6/4 224/6/4 228/6/4
f 219/5/4 221/5/4 229/5/4
f 221/6/4 227/6/4 229/6/4
f 227/3/4 228/3/4 230/3/4
f 229/6/4 227/6/4 230/6/4
f 228/6/4 224/6/4 231/6/4
f 230/3/4 228/3/4 231/3/4
f 224/5/4 220/5/4 232/5/4
f 231/6/4 224/6/4 232/6/4
f 219/5/4 229/5/4 233/5/4
f 230/5/4 231/5/4 233/5/4
f 231/5/4 232/5/4 233/5/4
f 229/5/4 230/5/4 233/5/4
f 232/5/4 220/5/4 234/5/4
f 233/5/4 232/5/4 234/5/4
f 237/5/5 236/5/5 235/5/5
f 238/5/5 236/5/5 237/5/5
f 241/4/5 240/4/5 239/4/5
f 242/4/5 240/4/5 241/4/5
f 243/4/5 241/4/5 239/4/5
f 244/4/5 240/4/5 242/4/5
f 245/4/5 243/4/5 239/4/5
f 245/4/5 244/4/5 243/4/5
f 246/4/5 240/4/5 244/4/5
f 246/4/5 244/4/5 245/4/5
f 249/6/5 248/6/5 247/6/5
f 250/6/5 248/6/5 249/6/5
f 253/6/5 252/6/5 251/6/5
f 254/6/5 252/6/5 253/6/5
f 257/6/5 256/6/5 255/6/5
f 258/6/5 256/6/5 257/6/5
f 261/6/5 260/6/5 259/6/5
f 262/6/5 260/6/5 261/6/5
f 266/5/5 264/5/5 263/5/5
f 267/5/5 264/5/5 266/5/5
f 269/5/5 266/5/5 265/5/5
f 269/5/5 268/5/5 267/5/5
f 269/5/5 267/5/5 266/5/5
f 270/5/5 268/5/5 269/5/5
f 271/5/5 268/5/5 270/5/5
f 272/5/5 268/5/5 271/5/5
f 273/5/5 271/5/5 270/5/5
f 274/5/5 271/5/5 273/5/5
f 275/5/6 276/5/6 278/5/6
f 278/5/6 276/5/6 279/5/6
f 277/5/6 278/5/6 281/5/6
f 279/5/6 280/5/6 281/5/6
f 278/5/6 279/5/6 281/5/6
f 281/5/6 280/5/6 282/5/6
f 277/5/6 281/5/6 283/5/6
f 282/5/6 280/5/6 284/5/6
f 277/5/6 283/5/6 285/5/6
f 283/5/6 284/5/6 285/5/6
f 285/5/6 284/5/6 286/5/6
f 284/5/6 280/5/6 287/5/6
f 286/5/6 284/5/6 287/5/6
f 287/5/6 280/5/6 288/5/6
f 286/5/6 287/5/6 289/5/6
f 289/5/6 287/5/6 290/5/6
f 291/1/6 292/1/6 293/1/6
f 293/1/6 292/1/6 294/1/6
f 291/1/6 293/1/6 295/1/6
f 294/1/6 292/1/6 296/1/6
f 291/1/6 295/1/6 297/1/6
f 295/1/6 296/1/6 297/1/6
f 296/1/6 292/1/6 298/1/6
f 297/1/6 296/1/6 298/1/6
f 299/6/6 300/6/6 301/6/6
f 301/6/6 300/6/6 302/6/6
f 305/6/6 306/6/6 307/6/6
f 307/6/6 306/6/6 308/6/6
f 303/6/6 304/6/6 309/6/6
f 309/6/6 304/6/6 310/6/6
f 311/6/6 312/6/6 313/6/6
f 313/6/6 312/6/6 314/6/6
f 315/4/6 316/4/6 317/4/6
f 317/4/6 316/4/6 318/4/6
f 319/5/6 320/5/6 321/5/6
f 321/5/6 320/5/6 322/5/6
